<svg width="64" height="64" viewBox="0 0 64 64" fill="none" xmlns="http://www.w3.org/2000/svg">
  <g transform="translate(18.7, 9.2) scale(2.4)">
    <path d="M11.9265 6.05277C11.8785 6.05277 11.8326 6.07432 11.7996 6.11234C11.2419 6.78541 9.51953 10.1465 8.96574 12.3822C7.60587 17.8749 7.83456 21.5618 8.06326 23.1807C8.0747 23.2675 8.14245 23.3322 8.22289 23.3333C8.30334 23.3344 8.37251 23.2714 8.38589 23.185C8.55016 22.1668 8.82164 20.5694 9.03607 19.6986C10.8656 12.2562 12.5629 9.17169 13.2254 8.1728C13.3863 7.93097 13.3656 7.59832 13.1762 7.38238L12.0534 6.11234C12.0204 6.07432 11.9745 6.05277 11.9265 6.05277ZM1.4473 6.10027C1.37274 6.09668 1.30037 6.12821 1.24865 6.18682L0.126324 7.45687C-0.0267401 7.63049 -0.0423336 7.89917 0.0894375 8.09242C0.710602 9.00449 2.45114 12.051 4.33185 19.7028C4.54038 20.5511 4.8035 22.0907 4.96875 23.1089C4.98433 23.201 5.05869 23.2674 5.14465 23.266C5.23061 23.2645 5.30304 23.1956 5.31597 23.103C5.54122 21.4418 5.73943 17.7876 4.40168 12.3854C3.86856 10.2365 2.25835 7.04745 1.63817 6.20558C1.59139 6.14222 1.52186 6.10386 1.4473 6.10027ZM9.25412 1.17466C7.81669 -0.391553 5.48617 -0.391553 4.04874 1.17466C2.61132 2.74087 2.61132 5.28021 4.04874 6.84642C5.48617 8.41263 7.81669 8.41263 9.25412 6.84642C10.6915 5.28021 10.6915 2.74087 9.25412 1.17466Z" fill="#000000"/>
  </g>
</svg>
