<svg width="120" height="120" viewBox="0 0 120 120" fill="none" xmlns="http://www.w3.org/2000/svg">
<path d="M102.789 79.2141L104.616 78.4007C104.263 77.6091 103.441 77.1345 102.58 77.2251L102.789 79.2141ZM71.8023 107.114L69.846 106.699C69.6659 107.546 70.052 108.413 70.8023 108.846L71.8023 107.114ZM15.2107 37.7509L13.4202 36.8598L15.2107 37.7509ZM14.3534 80.436L12.5285 81.2543V81.2543L14.3534 80.436ZM104.443 82.9308L106.22 83.8493L104.443 82.9308ZM52.5009 27.0573L51.3253 28.6753L72.1735 43.8224L73.3491 42.2044L74.5247 40.5863L53.6765 25.4393L52.5009 27.0573ZM73.3491 42.2044L71.447 41.5863L63.4837 66.0948L65.3858 66.7129L67.2879 67.3309L75.2512 42.8224L73.3491 42.2044ZM65.3858 66.7129V64.7129H39.6161V66.7129V68.7129H65.3858V66.7129ZM39.6161 66.7129L41.5182 66.0948L33.5549 41.5864L31.6528 42.2044L29.7506 42.8224L37.7139 67.3309L39.6161 66.7129ZM31.6528 42.2044L32.8283 43.8224L53.6765 28.6753L52.5009 27.0573L51.3253 25.4393L30.4772 40.5864L31.6528 42.2044ZM102.789 79.2141L102.58 77.2251L76.9511 79.9188L77.1602 81.9078L77.3692 83.8969L102.998 81.2032L102.789 79.2141ZM77.1602 81.9078L75.2039 81.492L69.846 106.699L71.8023 107.114L73.7586 107.53L79.1165 82.3236L77.1602 81.9078ZM52.5009 27.0573H54.5009V10.6165H52.5009H50.5009V27.0573H52.5009ZM73.3491 42.2044L73.872 44.1348L91.3838 39.3911L90.8608 37.4607L90.3379 35.5303L72.8262 40.274L73.3491 42.2044ZM65.3858 66.7129L63.8049 67.9379L75.5793 83.1329L77.1602 81.9078L78.7411 80.6828L66.9667 65.4878L65.3858 66.7129ZM39.6161 66.7129L38.0091 65.5221L26.7495 80.7171L28.3564 81.9078L29.9633 83.0986L41.223 67.9036L39.6161 66.7129ZM95.4784 25.4316L93.6112 24.7149L88.9937 36.7439L90.8608 37.4607L92.728 38.1774L97.3455 26.1484L95.4784 25.4316ZM90.8608 37.4607L89.897 39.2131L107.345 48.8086L108.308 47.0562L109.272 45.3037L91.8246 35.7082L90.8608 37.4607ZM60 10V12C82.2096 12 100.901 27.0857 106.376 47.5726L108.308 47.0562L110.241 46.5398C104.309 24.3471 84.0662 8 60 8V10ZM108.308 47.0562L106.376 47.5726C107.435 51.5341 108 55.6995 108 60H110H112C112 55.3477 111.389 50.8352 110.241 46.5398L108.308 47.0562ZM31.6528 42.2044L32.1756 40.2739L15.7336 35.8205L15.2107 37.7509L14.6878 39.6814L31.1299 44.1348L31.6528 42.2044ZM10 60H12C12 52.323 13.8008 45.0723 17.0012 38.6421L15.2107 37.7509L13.4202 36.8598C9.95041 43.8313 8 51.6908 8 60H10ZM15.2107 37.7509L17.0012 38.6421C24.8629 22.8462 41.1667 12 60 12V10V8C39.5911 8 21.9321 19.7577 13.4202 36.8598L15.2107 37.7509ZM14.3534 80.436L14.1444 82.4251L28.1474 83.8969L28.3564 81.9078L28.5655 79.9188L14.5625 78.447L14.3534 80.436ZM14.3534 80.436L16.1784 79.6178C13.494 73.6311 12 66.9927 12 60H10H8C8 67.5678 9.61787 74.763 12.5285 81.2543L14.3534 80.436ZM60 110V108C50.2813 108 41.2428 105.114 33.6876 100.152L32.5897 101.824L31.4919 103.496C39.6794 108.872 49.4775 112 60 112V110ZM32.5897 101.824L33.6876 100.152C26.0599 95.1431 19.9455 88.0192 16.1784 79.6178L14.3534 80.436L12.5285 81.2543C16.6106 90.3582 23.2325 98.0717 31.4919 103.496L32.5897 101.824ZM28.3564 81.9078L26.4001 82.3236L30.6334 102.24L32.5897 101.824L34.546 101.408L30.3127 81.492L28.3564 81.9078ZM104.443 82.9308L106.271 82.1173L104.616 78.4007L102.789 79.2141L100.962 80.0276L102.616 83.7442L104.443 82.9308ZM110 60H108C108 67.9383 106.075 75.421 102.667 82.0123L104.443 82.9308L106.22 83.8493C109.914 76.7036 112 68.5924 112 60H110ZM104.443 82.9308L102.667 82.0123C96.6255 93.6976 85.9248 102.583 73.0302 106.211L73.5719 108.136L74.1136 110.061C88.0914 106.128 99.6778 96.5035 106.22 83.8493L104.443 82.9308ZM73.5719 108.136L73.0302 106.211C68.889 107.376 64.519 108 60 108V110V112C64.8889 112 69.6233 111.325 74.1136 110.061L73.5719 108.136ZM71.8023 107.114L70.8023 108.846L72.5719 109.868L73.5719 108.136L74.5719 106.404L72.8023 105.382L71.8023 107.114Z" fill="#B3FF3B"/>
</svg>
