<svg width="24" height="24" viewBox="0 0 24 24" fill="none" xmlns="http://www.w3.org/2000/svg">
<path d="M8.10455 20.2112C7.39135 20.2112 6.71427 20.0396 6.11844 19.6966C4.7101 18.8841 3.93372 17.232 3.93372 15.0563V8.6195C3.93372 6.43478 4.7101 4.79172 6.11844 3.97922C7.52677 3.16672 9.34136 3.32019 11.2372 4.41255L16.8073 7.62644C18.6941 8.7188 19.7414 10.2174 19.7414 11.8424C19.7414 13.4674 18.7032 14.966 16.8073 16.0584L11.2372 19.2723C10.1448 19.8952 9.07955 20.2112 8.10455 20.2112ZM8.10455 4.80978C7.61705 4.80978 7.18372 4.91811 6.79552 5.1438C5.82052 5.70353 5.28788 6.94033 5.28788 8.6195V15.0473C5.28788 16.7264 5.82052 17.9542 6.79552 18.523C7.77052 19.0917 9.10663 18.9292 10.5601 18.0896L16.1302 14.8757C17.5837 14.0362 18.3872 12.9619 18.3872 11.8334C18.3872 10.7049 17.5837 9.63061 16.1302 8.79103L10.5601 5.57714C9.67538 5.07158 8.84483 4.80978 8.10455 4.80978Z" fill="#151515"/>
<path d="M3.63391 8.61989C3.63391 6.36919 4.43676 4.60341 5.96887 3.7195C7.50117 2.83559 9.43477 3.02745 11.3868 4.15212V4.15309L16.9572 7.36696C18.9 8.49174 20.0411 10.074 20.0411 11.8425C20.0411 13.5 19.0472 14.9948 17.3136 16.1023L16.9572 16.3181L11.3868 19.532L11.3859 19.533C10.2602 20.1749 9.14392 20.5115 8.10461 20.5115C7.34277 20.5115 6.61338 20.3278 5.96887 19.9568C4.4366 19.0728 3.63394 17.2977 3.63391 15.0564V8.61989ZM5.28821 8.61989C5.28821 6.94082 5.82014 5.70309 6.79504 5.14333C7.18324 4.91763 7.61711 4.80934 8.10461 4.80934L8.38586 4.82204C9.05287 4.87898 9.78554 5.1346 10.5597 5.57692L16.13 8.79079C17.5835 9.63037 18.3868 10.7053 18.3868 11.8338L18.3781 12.0447C18.2843 13.0955 17.4925 14.0887 16.13 14.8758L10.5597 18.0896C9.19716 18.8766 7.93796 19.0686 6.98254 18.6209L6.79504 18.5232C5.88122 17.99 5.35623 16.8774 5.29407 15.3572L5.28821 15.0476V8.61989ZM3.93372 15.0564L3.9425 15.4578C4.03291 17.4351 4.79792 18.9353 6.11829 19.697C6.63964 19.9972 7.22346 20.1654 7.83899 20.2029L8.10461 20.2107C8.95784 20.2107 9.88008 19.9689 10.8292 19.491L11.2374 19.2722L16.8077 16.0584C18.585 15.0342 19.6087 13.6529 19.7296 12.1453L19.7413 11.8425C19.7413 10.3191 18.8212 8.90638 17.1515 7.83571L16.8077 7.62673L11.2374 4.41286C9.34159 3.3205 7.52662 3.16677 6.11829 3.97927L5.86145 4.14138C4.61593 4.99942 3.93372 6.57189 3.93372 8.61989V15.0564ZM5.58801 15.0476C5.58809 16.6763 6.10407 17.7718 6.94641 18.2634C7.78602 18.7532 8.9979 18.6457 10.4103 17.8299L15.9806 14.616C17.3917 13.8008 18.0869 12.8069 18.087 11.8338C18.087 10.8605 17.392 9.86589 15.9806 9.05056L10.4113 5.83669C9.55496 5.34744 8.77589 5.11014 8.10461 5.11013C7.66388 5.11013 7.28367 5.20704 6.94641 5.40309L6.94446 5.40407C6.10467 5.8864 5.58801 6.98941 5.58801 8.61989V15.0476Z" fill="#151515"/>
</svg>
