<svg width="24" height="24" viewBox="0 0 24 24" fill="none" xmlns="http://www.w3.org/2000/svg">
<path d="M4.88651 13.3747C4.66119 13.1494 4.51888 12.8411 4.51888 12.4853C4.51888 11.7974 5.08812 11.2282 5.77595 11.2282L19.2006 11.2282C19.8884 11.2282 20.4577 11.7974 20.4577 12.4853C20.4577 13.1731 19.8884 13.7424 19.2006 13.7424L5.77595 13.7424C5.43204 13.7542 5.11184 13.6001 4.88651 13.3747Z" fill="#151515"/>
<path d="M11.5988 20.0871C11.3735 19.8617 11.2312 19.5534 11.2312 19.1976L11.2312 5.77296C11.2312 5.08512 11.8004 4.51588 12.4883 4.51588C13.1761 4.51588 13.7454 5.08512 13.7454 5.77295L13.7454 19.1976C13.7454 19.8854 13.1761 20.4547 12.4883 20.4547C12.1325 20.4547 11.8242 20.3124 11.5988 20.0871Z" fill="#151515"/>
</svg>
