<svg width="16" height="16" viewBox="0 0 16 16" fill="none" xmlns="http://www.w3.org/2000/svg">
<path d="M2.62698 8.62993C2.46762 8.47058 2.36698 8.25252 2.36698 8.00091C2.36698 7.51446 2.76955 7.11189 3.256 7.11189L12.7501 7.11188C13.2365 7.11188 13.6391 7.51446 13.6391 8.00091C13.6391 8.48735 13.2365 8.88993 12.7501 8.88993L3.256 8.88993C3.01278 8.89832 2.78633 8.78929 2.62698 8.62993Z" fill="#2C2C2C"/>
<path d="M7.37402 13.377C7.21467 13.2176 7.11403 12.9996 7.11403 12.748L7.11403 3.25386C7.11403 2.76741 7.5166 2.36484 8.00305 2.36484C8.4895 2.36484 8.89207 2.76741 8.89207 3.25386L8.89207 12.748C8.89207 13.2344 8.4895 13.637 8.00305 13.637C7.75144 13.637 7.53338 13.5363 7.37402 13.377Z" fill="#2C2C2C"/>
</svg>
