<svg preserveAspectRatio="none" width="100%" height="100%" overflow="visible" style="display: block;" viewBox="0 0 20 20" fill="none" xmlns="http://www.w3.org/2000/svg">
<g id="Search">
<path id="Union" d="M8.16687 0.500031C12.4009 0.500229 15.8329 3.93297 15.8329 8.16702C15.8328 9.8025 15.3188 11.317 14.4462 12.5616L19.1093 17.2246C19.6296 17.7454 19.6298 18.5888 19.1093 19.1094C18.5887 19.63 17.7452 19.6298 17.2245 19.1094L12.5614 14.4463C11.3168 15.3189 9.80235 15.833 8.16687 15.833C3.9328 15.833 0.500054 12.4011 0.499878 8.16702C0.499883 3.93284 3.93269 0.500031 8.16687 0.500031ZM8.16687 2.50003C5.03726 2.50003 2.49988 5.03741 2.49988 8.16702C2.50005 11.2965 5.03737 13.833 8.16687 13.833C11.2962 13.8328 13.8327 11.2964 13.8329 8.16702C13.8329 5.03754 11.2963 2.50023 8.16687 2.50003Z" fill="var(--fill-0, white)"/>
</g>
</svg>
