<svg width="24" height="24" viewBox="0 0 24 24" fill="none" xmlns="http://www.w3.org/2000/svg">
<g opacity="0.6">
<path d="M10.9525 3L10.8017 3.4525C10.654 3.89542 10.4537 4.319 10.205 4.71417C9.87138 5.24013 9.41539 5.67751 8.87599 5.98893C8.33659 6.30036 7.72981 6.47656 7.1075 6.5025C6.64127 6.52017 6.1746 6.48184 5.7175 6.38833L5.25 6.2925L4 8.4575L4.31667 8.815C4.62833 9.16667 4.89417 9.55167 5.11083 9.96167C5.39952 10.5136 5.55031 11.1272 5.55031 11.75C5.55031 12.3728 5.39952 12.9864 5.11083 13.5383C4.89293 13.9509 4.6263 14.3359 4.31667 14.685L4 15.0425L5.25 17.2075L5.71667 17.1117C6.17431 17.018 6.64155 16.9797 7.10833 16.9975C7.7305 17.0236 8.33711 17.1998 8.87635 17.5113C9.4156 17.8227 9.87146 18.26 10.205 18.7858C10.4517 19.1775 10.6525 19.6017 10.8017 20.0475L10.9525 20.5H13.4525L13.6033 20.0475C13.7533 19.5997 13.9522 19.1792 14.2 18.7858C14.5336 18.2599 14.9896 17.8225 15.529 17.5111C16.0684 17.1996 16.6752 17.0234 17.2975 16.9975C17.7637 16.9798 18.2304 17.0182 18.6875 17.1117L19.155 17.2075L20.405 15.0425L20.0883 14.685C19.7787 14.3359 19.5121 13.9509 19.2942 13.5383C19.0055 12.9864 18.8547 12.3728 18.8547 11.75C18.8547 11.1272 19.0055 10.5136 19.2942 9.96167C19.5108 9.55167 19.7767 9.16667 20.0883 8.815L20.405 8.4575L19.155 6.2925L18.6883 6.38833C18.2307 6.48197 17.7635 6.5203 17.2967 6.5025C16.6745 6.47643 16.0679 6.30016 15.5286 5.98874C14.9894 5.67733 14.5335 5.24002 14.2 4.71417C13.9513 4.319 13.751 3.89542 13.6033 3.4525L13.4525 3H10.9525Z" stroke="white"/>
<path d="M15.1208 11.75C15.1208 12.524 14.8134 13.2663 14.2661 13.8136C13.7188 14.3609 12.9765 14.6683 12.2025 14.6683C11.4285 14.6683 10.6862 14.3609 10.1389 13.8136C9.59165 13.2663 9.28418 12.524 9.28418 11.75C9.28418 10.976 9.59165 10.2337 10.1389 9.68643C10.6862 9.13913 11.4285 8.83167 12.2025 8.83167C12.9765 8.83167 13.7188 9.13913 14.2661 9.68643C14.8134 10.2337 15.1208 10.976 15.1208 11.75Z" stroke="white"/>
</g>
</svg>
