<svg xmlns="http://www.w3.org/2000/svg" width="16" height="16" viewBox="0 0 16 16" fill="none" opacity="0.6">
  <g clip-path="url(#clip0_2292_10883)">
    <path d="M9.06 9.05997C9.331 8.78897 9.499 8.41397 9.499 7.99997C9.499 7.58597 9.331 7.21097 9.06 6.93997C8.47 6.34997 2.34 2.33997 2.34 2.33997C2.34 2.33997 6.34 8.46997 6.93 9.05997C7.06924 9.20092 7.23507 9.31283 7.41789 9.38922C7.6007 9.4656 7.79686 9.50493 7.995 9.50493C8.19313 9.50493 8.38929 9.4656 8.5721 9.38922C8.75492 9.31283 8.92076 9.20092 9.06 9.05997Z" fill="white"/>
    <path d="M7.99999 0V3H8.99999V1.59C12.153 2.085 14.536 4.782 14.536 8.035C14.5358 9.04298 14.3019 10.0372 13.8526 10.9395C13.4034 11.8419 12.7511 12.6278 11.9469 13.2355C11.1427 13.8432 10.2086 14.2561 9.21785 14.442C8.22714 14.6278 7.20684 14.5813 6.2371 14.3063C5.26736 14.0313 4.37459 13.5352 3.62892 12.857C2.88325 12.1787 2.30499 11.3368 1.93956 10.3974C1.57412 9.45802 1.43148 8.44668 1.52282 7.44284C1.61416 6.43901 1.93701 5.47002 2.46599 4.612L1.54999 3.29C0.549833 4.65637 0.0126868 6.3067 0.0169935 8C0.0169935 9.58225 0.486185 11.129 1.36524 12.4446C2.24429 13.7602 3.49372 14.7855 4.95553 15.391C6.41733 15.9965 8.02587 16.155 9.57772 15.8463C11.1296 15.5376 12.555 14.7757 13.6738 13.6569C14.7927 12.538 15.5546 11.1126 15.8633 9.56072C16.172 8.00887 16.0135 6.40034 15.408 4.93853C14.8025 3.47672 13.7771 2.22729 12.4616 1.34824C11.146 0.469192 9.59924 0 8.01699 0L7.99999 0Z" fill="white"/>
  </g>
  <defs>
    <clipPath id="clip0_2292_10883">
      <rect width="16" height="16" fill="white"/>
    </clipPath>
  </defs>
</svg>