<svg width="21" height="21" viewBox="0 0 21 21" fill="none" xmlns="http://www.w3.org/2000/svg">
<path d="M17.9495 5.75266C17.9324 5.75266 17.9068 5.75266 17.8811 5.75266C13.3594 5.29964 8.8463 5.12868 4.3759 5.58171L2.63219 5.75266C2.27319 5.78685 1.95693 5.53042 1.92274 5.17142C1.88855 4.81242 2.14497 4.50471 2.49543 4.47052L4.23914 4.29957C8.78647 3.83799 13.3936 4.01749 18.0093 4.47052C18.3598 4.50471 18.6162 4.82097 18.582 5.17142C18.5564 5.50478 18.2743 5.75266 17.9495 5.75266Z" fill="white"/>
<path d="M7.26524 4.88914C7.23105 4.88914 7.19686 4.88914 7.15412 4.88059C6.81222 4.82076 6.57288 4.4874 6.63272 4.1455L6.82076 3.02576C6.95753 2.20519 7.14557 1.06836 9.13717 1.06836H11.3766C13.3768 1.06836 13.5648 2.24793 13.693 3.03431L13.8811 4.1455C13.9409 4.49595 13.7016 4.82931 13.3597 4.88059C13.0092 4.94043 12.6759 4.70109 12.6246 4.35919L12.4365 3.248C12.3169 2.50436 12.2912 2.35905 11.3852 2.35905H9.14571C8.23967 2.35905 8.22257 2.47871 8.09436 3.23945L7.89776 4.35064C7.84648 4.6669 7.57295 4.88914 7.26524 4.88914Z" fill="white"/>
<path d="M12.9999 19.4456H7.51237C4.52925 19.4456 4.40959 17.7959 4.31556 16.4624L3.75997 7.855C3.73432 7.50455 4.00785 7.19684 4.3583 7.17119C4.7173 7.1541 5.01647 7.41907 5.04211 7.76953L5.5977 16.377C5.69173 17.6762 5.72592 18.1634 7.51237 18.1634H12.9999C14.7949 18.1634 14.8291 17.6762 14.9146 16.377L15.4702 7.76953C15.4958 7.41907 15.8035 7.1541 16.154 7.17119C16.5045 7.19684 16.778 7.496 16.7523 7.855L16.1967 16.4624C16.1027 17.7959 15.983 19.4456 12.9999 19.4456Z" fill="white"/>
<path d="M11.6754 14.7445H8.82906C8.47861 14.7445 8.18799 14.4539 8.18799 14.1035C8.18799 13.753 8.47861 13.4624 8.82906 13.4624H11.6754C12.0259 13.4624 12.3165 13.753 12.3165 14.1035C12.3165 14.4539 12.0259 14.7445 11.6754 14.7445Z" fill="white"/>
<path d="M12.3939 11.3256H8.12007C7.76962 11.3256 7.479 11.035 7.479 10.6845C7.479 10.3341 7.76962 10.0435 8.12007 10.0435H12.3939C12.7443 10.0435 13.035 10.3341 13.035 10.6845C13.035 11.035 12.7443 11.3256 12.3939 11.3256Z" fill="white"/>
</svg>
