<svg width="24" height="24" viewBox="0 0 24 24" fill="none" xmlns="http://www.w3.org/2000/svg">
<g opacity="0.6">
<path d="M9.97502 16.7563C9.65727 16.7563 9.39377 16.4928 9.39377 16.175V12.9278L8.83577 13.4858C8.61102 13.7105 8.23902 13.7105 8.01427 13.4858C7.78952 13.261 7.78952 12.889 8.01427 12.6643L9.56427 11.1143C9.72702 10.9515 9.98277 10.8973 10.1998 10.9903C10.4168 11.0755 10.5563 11.2925 10.5563 11.525V16.175C10.5563 16.4928 10.2928 16.7563 9.97502 16.7563Z" fill="white"/>
<path d="M11.5251 13.6563C11.3778 13.6563 11.2306 13.602 11.1143 13.4858L9.56431 11.9358C9.33956 11.711 9.33956 11.339 9.56431 11.1143C9.78907 10.8895 10.1611 10.8895 10.3858 11.1143L11.9358 12.6643C12.1606 12.889 12.1606 13.261 11.9358 13.4858C11.8196 13.602 11.6723 13.6563 11.5251 13.6563Z" fill="white"/>
<path d="M14.625 20.6313H9.97502C5.76676 20.6313 3.96875 18.8333 3.96875 14.625V9.97502C3.96875 5.76676 5.76676 3.96875 9.97502 3.96875H13.85C14.1678 3.96875 14.4313 4.23225 14.4313 4.55C14.4313 4.86775 14.1678 5.13125 13.85 5.13125H9.97502C6.40226 5.13125 5.13125 6.40226 5.13125 9.97502V14.625C5.13125 18.1978 6.40226 19.4688 9.97502 19.4688H14.625C18.1978 19.4688 19.4688 18.1978 19.4688 14.625V10.75C19.4688 10.4323 19.7323 10.1688 20.0501 10.1688C20.3678 10.1688 20.6313 10.4323 20.6313 10.75V14.625C20.6313 18.8333 18.8333 20.6313 14.625 20.6313Z" fill="white"/>
<path d="M20.0501 11.3313H16.9501C14.2996 11.3313 13.2688 10.3005 13.2688 7.65003V4.55002C13.2688 4.31752 13.4083 4.10052 13.6253 4.01527C13.8423 3.92227 14.0903 3.97652 14.2608 4.13927L20.4608 10.3393C20.6236 10.502 20.6778 10.7578 20.5848 10.9748C20.4918 11.1918 20.2826 11.3313 20.0501 11.3313ZM14.4313 5.95277V7.65003C14.4313 9.64953 14.9506 10.1688 16.9501 10.1688H18.6473L14.4313 5.95277Z" fill="white"/>
</g>
</svg>
