<svg width="82" height="87" viewBox="18 -26 82 87" fill="none" xmlns="http://www.w3.org/2000/svg">
<rect x="57.8214" y="-20.712" width="45.7363" height="63.7512" rx="4.14805" transform="rotate(30.7638 57.8214 -20.712)" fill="#0D0D0D" stroke="#FFFFFF" stroke-width="2.76537"/>
<path d="M53.5181 -19.6224C53.4264 -19.487 53.3373 -19.3483 53.2525 -19.206L52.0591 -17.2014L42.4484 -20.5391C41.006 -21.0398 39.431 -20.2766 38.9297 -18.8345L20.7364 33.5523C20.2357 34.9948 20.9987 36.5698 22.441 37.071L25.8682 38.2612C26.4087 38.857 27.0452 39.3849 27.7725 39.8178L35.9683 44.6965L21.5337 39.6835L21.2675 39.5838C18.6431 38.5206 17.2447 35.6342 18.037 32.9157L18.1238 32.645L36.3172 -19.7418C37.3195 -22.6266 40.4706 -24.1534 43.3557 -23.1517L53.5181 -19.6224Z" fill="#FFFFFF"/>
</svg>
