<svg width="82" height="87" viewBox="18 -26 82 87" fill="none" xmlns="http://www.w3.org/2000/svg">
<rect x="57.8214" y="-20.712" width="45.7363" height="63.7512" rx="4.14805" transform="rotate(30.7638 57.8214 -20.712)" fill="#0D0D0D" stroke="#F14531" stroke-width="2.76537"/>
<path d="M53.5176 -19.6217C53.426 -19.4865 53.337 -19.3484 53.2524 -19.2063L52.0586 -17.2008L42.4479 -20.5385C41.0054 -21.0392 39.4304 -20.2761 38.9293 -18.8338L20.7359 33.553C20.2354 34.9954 20.9983 36.5705 22.4405 37.0716L25.8695 38.2624C26.4097 38.8577 27.0457 39.3849 27.7723 39.8175L35.9724 44.6987L21.5332 39.6842L21.267 39.5845C18.6427 38.5213 17.2444 35.6348 18.0366 32.9163L18.1233 32.6456L36.3167 -19.7411C37.3189 -22.6262 40.47 -24.1528 43.3552 -23.151L53.5176 -19.6217Z" fill="#F14531"/>
</svg>
