<svg width="24" height="24" viewBox="0 0 24 24" fill="none" xmlns="http://www.w3.org/2000/svg">
<path d="M16.7833 15.0583C16.625 15.0583 16.4667 15 16.3417 14.875C16.1 14.6333 16.1 14.2333 16.3417 13.9917L18.0333 12.3L16.3417 10.6083C16.1 10.3667 16.1 9.96668 16.3417 9.72501C16.5833 9.48335 16.9833 9.48335 17.225 9.72501L19.3583 11.8583C19.6 12.1 19.6 12.5 19.3583 12.7417L17.225 14.875C17.1 15 16.9417 15.0583 16.7833 15.0583Z" fill="#151515"/>
<path d="M16.1652 9.54863C16.5045 9.20933 17.0623 9.20933 17.4016 9.54863L19.5354 11.6814C19.8746 12.0208 19.8746 12.5795 19.5354 12.9187L17.4016 15.0516C17.2272 15.2259 17.0044 15.3084 16.7834 15.3084C16.5624 15.3084 16.3396 15.2258 16.1652 15.0516C15.8259 14.7123 15.8259 14.1545 16.1652 13.8152L17.6799 12.2996L16.1652 10.785C15.8259 10.4457 15.8259 9.88793 16.1652 9.54863ZM17.2248 9.72539C16.9831 9.48372 16.5837 9.48372 16.342 9.72539L16.2619 9.82207C16.1033 10.0638 16.1305 10.3967 16.342 10.6082L18.0334 12.2996L16.342 13.992L16.2619 14.0887C16.1032 14.3304 16.1305 14.6633 16.342 14.8748C16.4358 14.9686 16.548 15.0254 16.6652 15.0477L16.7834 15.0584C16.9417 15.0584 17.0998 14.9998 17.2248 14.8748L19.3586 12.742C19.57 12.5306 19.5962 12.1976 19.4377 11.9559L19.3586 11.8582L17.2248 9.72539Z" fill="#151515"/>
<path d="M18.8583 12.925H10.3833C10.0416 12.925 9.7583 12.6417 9.7583 12.3C9.7583 11.9583 10.0416 11.675 10.3833 11.675H18.8583C19.2 11.675 19.4833 11.9583 19.4833 12.3C19.4833 12.6417 19.2 12.925 18.8583 12.925Z" fill="#151515"/>
<path d="M9.5083 12.3C9.5083 11.8202 9.90356 11.425 10.3833 11.425V11.675C10.0416 11.675 9.7583 11.9583 9.7583 12.3L9.771 12.425C9.82149 12.6676 10.0156 12.8618 10.2583 12.9123L10.3833 12.925H18.8579L18.9829 12.9123C19.2257 12.8619 19.4197 12.6677 19.4702 12.425L19.4829 12.3C19.4829 11.9583 19.1996 11.675 18.8579 11.675V11.425C19.3376 11.425 19.7329 11.8202 19.7329 12.3C19.7329 12.7797 19.3376 13.175 18.8579 13.175H10.3833C9.90356 13.175 9.5083 12.7797 9.5083 12.3ZM18.8579 11.425V11.675H10.3833V11.425H18.8579Z" fill="#151515"/>
<path d="M12.05 19.5417C7.7583 19.5417 4.7583 16.5417 4.7583 12.25C4.7583 7.95834 7.7583 4.95834 12.05 4.95834C12.3916 4.95834 12.675 5.24168 12.675 5.58334C12.675 5.92501 12.3916 6.20834 12.05 6.20834C8.49163 6.20834 6.0083 8.69168 6.0083 12.25C6.0083 15.8083 8.49163 18.2917 12.05 18.2917C12.3916 18.2917 12.675 18.575 12.675 18.9167C12.675 19.2583 12.3916 19.5417 12.05 19.5417Z" fill="#151515"/>
<path d="M12.6753 5.58334C12.6753 5.2845 12.4583 5.03007 12.1753 4.97104L12.0503 4.95834C7.75863 4.95834 4.7583 7.95867 4.7583 12.2503L4.76709 12.6488C4.94142 16.595 7.70555 19.3585 11.6519 19.5326L12.0503 19.5414C12.3492 19.5412 12.6039 19.3245 12.6626 19.0414L12.6753 18.9164C12.6751 18.6176 12.4582 18.363 12.1753 18.304L12.0503 18.2914C8.60315 18.2914 6.16416 15.9611 6.01514 12.5804L6.0083 12.2503C6.0083 8.80331 8.33869 6.36434 11.7192 6.21518L12.0503 6.20834C12.3491 6.20819 12.6037 5.99139 12.6626 5.70834L12.6753 5.58334ZM12.9253 5.58334C12.9253 6.06297 12.5299 6.45816 12.0503 6.45834C10.3308 6.45834 8.88585 7.05736 7.87158 8.07162C6.85732 9.08589 6.2583 10.5309 6.2583 12.2503C6.25838 13.9696 6.85748 15.4139 7.87158 16.4281C8.88585 17.4423 10.3308 18.0414 12.0503 18.0414C12.5298 18.0415 12.9251 18.4369 12.9253 18.9164C12.9253 19.396 12.5299 19.7912 12.0503 19.7914C9.84466 19.7914 7.95543 19.0197 6.61768 17.682C5.28009 16.3443 4.50838 14.4557 4.5083 12.2503C4.5083 10.0447 5.27992 8.15547 6.61768 6.81772C7.95543 5.47997 9.84466 4.70834 12.0503 4.70834C12.5299 4.70852 12.9253 5.10371 12.9253 5.58334Z" fill="#151515"/>
</svg>
