<svg width="80" height="80" viewBox="0 0 80 80" fill="none" xmlns="http://www.w3.org/2000/svg">
<path d="M68.5258 52.8094L69.5307 52.362C69.3369 51.9267 68.8848 51.6657 68.4109 51.7155L68.5258 52.8094ZM47.8682 71.4096L46.7923 71.1809C46.6932 71.647 46.9056 72.1239 47.3183 72.3622L47.8682 71.4096ZM10.1405 25.1673L9.15574 24.6772L10.1405 25.1673ZM9.56896 53.624L8.5653 54.0741V54.0741L9.56896 53.624ZM69.629 55.2872L70.6061 55.7923L69.629 55.2872ZM35.0006 18.0382L34.3541 18.9281L48.2529 29.0261L48.8994 28.1363L49.5459 27.2464L35.6471 17.1483L35.0006 18.0382ZM48.8994 28.1363L47.8533 27.7964L42.5444 44.1353L43.5905 44.4752L44.6366 44.8151L49.9455 28.4762L48.8994 28.1363ZM43.5905 44.4752V43.3753H26.4107V44.4752V45.5752H43.5905V44.4752ZM26.4107 44.4752L27.4568 44.1353L22.1479 27.7964L21.1018 28.1363L20.0557 28.4762L25.3646 44.8151L26.4107 44.4752ZM21.1018 28.1363L21.7484 29.0261L35.6471 18.9281L35.0006 18.0382L34.3541 17.1483L20.4553 27.2464L21.1018 28.1363ZM68.5258 52.8094L68.4109 51.7155L51.3251 53.5113L51.4401 54.6052L51.5551 55.6991L68.6408 53.9033L68.5258 52.8094ZM51.4401 54.6052L50.3642 54.3765L46.7923 71.1809L47.8682 71.4096L48.9441 71.6383L52.516 54.8339L51.4401 54.6052ZM35.0006 18.0382H36.1006V7.07768H35.0006H33.9007V18.0382H35.0006ZM48.8994 28.1363L49.187 29.1979L60.8615 26.0355L60.5739 24.9738L60.2863 23.9121L48.6118 27.0746L48.8994 28.1363ZM43.5905 44.4752L42.7211 45.149L50.5707 55.2789L51.4401 54.6052L52.3096 53.9315L44.46 43.8015L43.5905 44.4752ZM26.4107 44.4752L25.5269 43.8204L18.0205 53.9503L18.9043 54.6052L19.788 55.2601L27.2945 45.1301L26.4107 44.4752ZM63.6522 16.9544L62.6253 16.5602L59.547 24.5796L60.5739 24.9738L61.6008 25.368L64.6791 17.3486L63.6522 16.9544ZM60.5739 24.9738L60.0438 25.9376L71.6755 32.3346L72.2056 31.3708L72.7356 30.407L61.1039 24.01L60.5739 24.9738ZM40 6.66667V7.76661C54.9147 7.76661 67.466 17.8973 71.1429 31.6548L72.2056 31.3708L73.2682 31.0868C69.3406 16.3912 55.9358 5.56672 40 5.56672V6.66667ZM72.2056 31.3708L71.1429 31.6548C71.854 34.3153 72.2334 37.1125 72.2334 40H73.3333H74.4333C74.4333 36.919 74.0284 33.9309 73.2682 31.0868L72.2056 31.3708ZM21.1018 28.1363L21.3894 27.0746L10.428 24.1056L10.1405 25.1673L9.85289 26.229L20.8143 29.1979L21.1018 28.1363ZM6.66667 40H7.76661C7.76661 34.8451 8.97587 29.9758 11.1252 25.6574L10.1405 25.1673L9.15574 24.6772C6.85826 29.2933 5.56672 34.4974 5.56672 40H6.66667ZM10.1405 25.1673L11.1252 25.6574C16.4043 15.0506 27.3525 7.76661 40 7.76661V6.66667V5.56672C26.486 5.56672 14.7924 13.352 9.15574 24.6772L10.1405 25.1673ZM9.56896 53.624L9.45399 54.7179L18.7893 55.6991L18.9043 54.6052L19.0193 53.5113L9.68394 52.5301L9.56896 53.624ZM9.56896 53.624L10.5726 53.174C8.76986 49.1534 7.76661 44.6953 7.76661 40H6.66667H5.56672C5.56672 45.0116 6.63808 49.7759 8.5653 54.0741L9.56896 53.624ZM40 73.3333V72.2334C33.474 72.2334 27.404 70.2952 22.3303 66.9632L21.7265 67.8826L21.1227 68.8021C26.5441 72.3623 33.0319 74.4333 40 74.4333V73.3333ZM21.7265 67.8826L22.3303 66.9632C17.2083 63.5996 13.1024 58.816 10.5726 53.174L9.56896 53.624L8.5653 54.0741C11.2683 60.1023 15.6533 65.2103 21.1227 68.8021L21.7265 67.8826ZM18.9043 54.6052L17.8284 54.8339L20.6506 68.1113L21.7265 67.8826L22.8024 67.6539L19.9802 54.3765L18.9043 54.6052ZM69.629 55.2872L70.6338 54.8398L69.5307 52.362L68.5258 52.8094L67.521 53.2568L68.6241 55.7346L69.629 55.2872ZM73.3333 40H72.2334C72.2334 45.3304 70.9404 50.3555 68.6519 54.782L69.629 55.2872L70.6061 55.7923C73.0522 51.0609 74.4333 45.6901 74.4333 40H73.3333ZM69.629 55.2872L68.6519 54.782C64.5951 62.6288 57.4096 68.5953 48.75 71.0319L49.0479 72.0907L49.3459 73.1495C58.6012 70.5453 66.2738 64.172 70.6061 55.7923L69.629 55.2872ZM49.0479 72.0907L48.75 71.0319C45.9689 71.8144 43.0343 72.2334 40 72.2334V73.3333V74.4333C43.2377 74.4333 46.3727 73.9861 49.3459 73.1495L49.0479 72.0907ZM47.8682 71.4096L47.3183 72.3622L48.498 73.0433L49.0479 72.0907L49.5979 71.1381L48.4182 70.457L47.8682 71.4096Z" fill="#FFFFFF"/>
</svg>
