<svg width="24" height="24" viewBox="0 0 24 24" fill="none" xmlns="http://www.w3.org/2000/svg">
<g opacity="0.6">
<path d="M11.8655 19.2012C9.97277 19.2012 8.32274 18.5829 6.91535 17.3464C5.50858 16.1105 4.69459 14.554 4.47339 12.6768H5.41569C5.6692 14.28 6.39962 15.6128 7.60693 16.6753C8.81424 17.7379 10.2337 18.2691 11.8655 18.2691C13.6829 18.2691 15.2245 17.6363 16.4903 16.3705C17.756 15.1048 18.3892 13.5629 18.3898 11.7448C18.3904 9.92668 17.7572 8.38477 16.4903 7.11905C15.2233 5.85333 13.6817 5.22047 11.8655 5.22047C10.9005 5.22047 9.9939 5.42428 9.14574 5.83189C8.29758 6.23888 7.54883 6.79967 6.89951 7.51424H9.21191V8.44628H5.34112V4.57642H6.27317V6.80215C6.99395 6.01115 7.83839 5.39476 8.80647 4.95297C9.77456 4.51118 10.7942 4.28966 11.8655 4.28842C12.8988 4.28842 13.8675 4.48291 14.7716 4.87188C15.6757 5.26086 16.4654 5.79337 17.1408 6.46941C17.8163 7.14546 18.3488 7.93521 18.7384 8.83867C19.128 9.74214 19.3224 10.7108 19.3218 11.7448C19.3212 12.7787 19.1267 13.7475 18.7384 14.6509C18.35 15.5544 17.8175 16.3441 17.1408 17.0202C16.4642 17.6962 15.6744 18.2287 14.7716 18.6177C13.8687 19.0067 12.9 19.2012 11.8655 19.2012ZM14.8517 15.3369L11.4526 11.9387V7.08456H12.3846V11.5509L15.5107 14.677L14.8517 15.3369Z" fill="white"/>
</g>
</svg>
