<svg width="86" height="86" viewBox="0 0 86 86" fill="none" xmlns="http://www.w3.org/2000/svg">
<g transform="translate(5.73 5.73)">
<path d="M67.9319 51.0368L69.2413 50.4538C68.9888 49.8865 68.3997 49.5464 67.7821 49.6113L67.9319 51.0368ZM45.725 71.032L44.323 70.734C44.1939 71.3414 44.4706 71.9628 45.0083 72.2733L45.725 71.032ZM5.16766 21.3215L3.88448 20.6828V20.6828L5.16766 21.3215ZM4.5533 51.9125L3.24543 52.4989V52.4989L4.5533 51.9125ZM69.1178 53.7004L70.3911 54.3586L69.1178 53.7004ZM31.8923 13.6577L31.0498 14.8173L45.991 25.6727L46.8335 24.5131L47.676 23.3536L32.7348 12.4981L31.8923 13.6577ZM46.8335 24.5131L45.4703 24.0702L39.7633 41.6346L41.1265 42.0775L42.4897 42.5205L48.1967 24.9561L46.8335 24.5131ZM41.1265 42.0775V40.6442H22.6582V42.0775V43.5109H41.1265V42.0775ZM22.6582 42.0775L24.0213 41.6346L18.3143 24.0702L16.9511 24.5131L15.588 24.9561L21.295 42.5205L22.6582 42.0775ZM16.9511 24.5131L17.7936 25.6727L32.7348 14.8173L31.8923 13.6577L31.0498 12.4982L16.1087 23.3536L16.9511 24.5131ZM67.9319 51.0368L67.7821 49.6113L49.415 51.5418L49.5648 52.9673L49.7146 54.3928L68.0818 52.4623L67.9319 51.0368ZM49.5648 52.9673L48.1628 52.6693L44.323 70.734L45.725 71.032L47.127 71.33L50.9668 53.2653L49.5648 52.9673ZM31.8923 13.6577H33.3257V1.87517H31.8923H30.459V13.6577H31.8923ZM46.8335 24.5131L47.2083 25.8966L59.7584 22.497L59.3836 21.1135L59.0088 19.73L46.4587 23.1297L46.8335 24.5131ZM41.1265 42.0775L39.9935 42.9555L48.4318 53.8452L49.5648 52.9673L50.6978 52.0893L42.2595 41.1996L41.1265 42.0775ZM22.6582 42.0775L21.5066 41.2242L13.4372 52.1139L14.5888 52.9673L15.7404 53.8206L23.8098 42.9309L22.6582 42.0775ZM62.6928 12.4927L61.3547 11.979L58.0455 20.5998L59.3836 21.1135L60.7217 21.6272L64.031 13.0063L62.6928 12.4927ZM59.3836 21.1135L58.6929 22.3694L71.1969 29.2462L71.8876 27.9902L72.5784 26.7343L60.0743 19.8576L59.3836 21.1135ZM37.2667 1.43333V2.86667C53.1835 2.86667 66.5789 13.6781 70.5029 28.3603L71.8876 27.9902L73.2724 27.6202C69.0216 11.7154 54.5141 0 37.2667 0V1.43333ZM71.8876 27.9902L70.5029 28.3603C71.2617 31.1995 71.6667 34.1847 71.6667 37.2667H73.1H74.5333C74.5333 33.9325 74.0951 30.6986 73.2724 27.6202L71.8876 27.9902ZM16.9511 24.5131L17.3259 23.1297L5.54239 19.938L5.16766 21.3215L4.79293 22.705L16.5764 25.8966L16.9511 24.5131ZM1.43333 37.2667H2.86667C2.86667 31.7648 4.15723 26.5685 6.45085 21.9601L5.16766 21.3215L3.88448 20.6828C1.39779 25.6791 0 31.3117 0 37.2667H1.43333ZM5.16766 21.3215L6.45085 21.9601C12.0851 10.6398 23.7694 2.86667 37.2667 2.86667V1.43333V0C22.6403 0 9.98464 8.42634 3.88448 20.6828L5.16766 21.3215ZM4.5533 51.9125L4.40348 53.338L14.439 54.3928L14.5888 52.9673L14.7386 51.5418L4.70313 50.487L4.5533 51.9125ZM4.5533 51.9125L5.86118 51.3261C3.93739 47.0356 2.86667 42.2781 2.86667 37.2667H1.43333H0C0 42.6902 1.15947 47.8468 3.24543 52.4989L4.5533 51.9125ZM37.2667 73.1V71.6667C30.3016 71.6667 23.824 69.5982 18.4094 66.0424L17.6226 67.2405L16.8359 68.4386C22.7036 72.2919 29.7255 74.5333 37.2667 74.5333V73.1ZM17.6226 67.2405L18.4094 66.0424C12.9429 62.4525 8.56096 57.3471 5.86118 51.3261L4.5533 51.9125L3.24543 52.4989C6.17092 59.0234 10.9166 64.5514 16.8359 68.4386L17.6226 67.2405ZM14.5888 52.9673L13.1868 53.2653L16.2206 67.5385L17.6226 67.2405L19.0247 66.9425L15.9908 52.6693L14.5888 52.9673ZM69.1178 53.7004L70.4272 53.1174L69.2413 50.4538L67.9319 51.0368L66.6225 51.6198L67.8084 54.2834L69.1178 53.7004ZM73.1 37.2667H71.6667C71.6667 42.9558 70.2867 48.3184 67.8446 53.0421L69.1178 53.7004L70.3911 54.3586C73.0387 49.2376 74.5333 43.4246 74.5333 37.2667H73.1ZM69.1178 53.7004L67.8446 53.0421C63.515 61.4166 55.8461 67.7842 46.605 70.3844L46.9932 71.7642L47.3814 73.1439C57.3988 70.3253 65.7025 63.4275 70.3911 54.3586L69.1178 53.7004ZM46.9932 71.7642L46.605 70.3844C43.6371 71.2195 40.5053 71.6667 37.2667 71.6667V73.1V74.5333C40.7704 74.5333 44.1634 74.0494 47.3814 73.1439L46.9932 71.7642ZM45.725 71.032L45.0083 72.2733L46.2765 73.0055L46.9932 71.7642L47.7098 70.5229L46.4417 69.7907L45.725 71.032Z" fill="#F14531"/>
</g>
<rect x="23.98" y="22.93" width="39.417" height="40.133" rx="19.7" fill="#0D0D0D" stroke="#F14531" stroke-width="1.433"/>
<text x="43.69" y="43.4" font-family="Roboto, sans-serif" font-weight="500" font-size="17.2" fill="#F14531" text-anchor="middle" dominant-baseline="central">A</text>
</svg>
