<svg width="78" height="75" viewBox="0 0 77.6657 74.1279" fill="none" xmlns="http://www.w3.org/2000/svg">
<path d="M69.9167 45.8857C73.4381 47.8468 76.092 51.1773 77.156 55.1582C77.4887 56.4033 77.6657 57.7111 77.6657 59.0586C77.6657 61.5478 77.0617 63.8994 75.9909 65.9707C74.0952 69.6373 70.7377 72.4264 66.6862 73.5664C65.3846 73.9326 64.0125 74.1279 62.5964 74.1279C59.5476 74.1279 56.7076 73.2214 54.3347 71.6631C51.9415 70.0915 50.0226 67.8563 48.8396 65.2178C47.9959 63.3361 47.5271 61.2508 47.5271 59.0586C47.5271 58.3527 47.5756 57.658 47.6696 56.9775L49.8933 55.8691C49.6379 56.8896 49.5017 57.9578 49.5017 59.0586C49.5017 60.7676 49.8295 62.3981 50.4235 63.8926L53.2263 64.1875L55.7585 60.7695L53.8386 54.8603L52.5944 54.5225L62.1413 49.7627L66.5534 52.9697L70.5446 51.8887L71.4841 49.4433C70.3792 48.4217 69.0967 47.5911 67.6901 46.9961L69.9167 45.8857ZM54.7419 65.458L55.7556 70.2256C57.746 71.4477 60.0874 72.1533 62.5964 72.1533C63.4164 72.1533 64.2177 72.0754 64.9948 71.9316L66.3679 65.4707L63.6296 61.9365H57.3532L54.7419 65.458ZM68.2458 66.1357L67.1384 71.3428C70.043 70.2683 72.4631 68.192 73.9792 65.5322L68.2458 66.1357ZM51.486 65.9902C52.0121 66.8315 52.6312 67.6086 53.3288 68.3076L52.8669 66.1357L51.486 65.9902ZM67.1296 54.8594L65.2136 60.7568L67.8728 64.1894L74.5446 63.4883L74.7028 63.4844C74.7734 63.4883 74.842 63.5021 74.9089 63.5205C75.4134 62.1286 75.6911 60.6268 75.6911 59.0586C75.6911 58.0296 75.5721 57.0292 75.3484 56.0703L71.1609 53.7676L67.1296 54.8594ZM55.7732 54.4238L57.573 59.9619H63.3962L65.1941 54.4238L60.4841 51L55.7732 54.4238ZM72.5183 52.2598L74.3396 53.2617C73.9558 52.4858 73.497 51.7538 72.9734 51.0742L72.5183 52.2598Z" fill="#B3FF3B"/>
<path d="M26.4613 14.0558L31.2277 23.3937L38.1606 36.9762M12.7668 32.5694L19.9617 46.364C22.0779 50.4213 39.8535 48.0119 38.1606 36.9762M38.1606 36.9762C40.5509 36.9369 43.6834 36.8932 47.0485 36.8579M12.7668 32.5694L7.98104 23.3937L1.33958 10.6602L19.9617 1.32222L26.4613 14.0558M7.98104 23.3937L26.4613 14.0558M12.7668 32.5694L31.2277 23.3937M19.9617 46.364L30.1192 65.8389L71.1726 45.4652C73.2888 44.6163 72.8655 36.8579 69.0565 36.9762C66.1132 37.0675 55.7988 36.7661 47.0485 36.8579M47.0485 36.8579V45.4652" stroke="#B3FF3B" stroke-width="1.975"/>
</svg>
