<svg width="24" height="24" viewBox="0 0 24 24" fill="none" xmlns="http://www.w3.org/2000/svg">
<g opacity="0.6">
<path d="M6.61666 18.2667C6.10832 18.2667 5.63332 18.0917 5.29166 17.7667C4.85832 17.3583 4.64999 16.7417 4.72499 16.075L5.03332 13.375C5.09166 12.8667 5.39999 12.1917 5.75832 11.825L12.6 4.58332C14.3083 2.77499 16.0917 2.72499 17.9 4.43332C19.7083 6.14166 19.7583 7.92499 18.05 9.73332L11.2083 16.975C10.8583 17.35 10.2083 17.7 9.69999 17.7833L7.01666 18.2417C6.87499 18.25 6.74999 18.2667 6.61666 18.2667ZM15.275 4.42499C14.6333 4.42499 14.075 4.82499 13.5083 5.42499L6.66666 12.675C6.49999 12.85 6.30832 13.2667 6.27499 13.5083L5.96666 16.2083C5.93332 16.4833 5.99999 16.7083 6.14999 16.85C6.29999 16.9917 6.52499 17.0417 6.79999 17L9.48332 16.5417C9.72499 16.5 10.125 16.2833 10.2917 16.1083L17.1333 8.86666C18.1667 7.76666 18.5417 6.74999 17.0333 5.33332C16.3667 4.69166 15.7917 4.42499 15.275 4.42499Z" fill="#E5E5E5"/>
<path d="M16.4501 11.125C16.4334 11.125 16.4084 11.125 16.3917 11.125C13.7917 10.8666 11.7001 8.89164 11.3001 6.30831C11.2501 5.96664 11.4834 5.64998 11.8251 5.59164C12.1667 5.54164 12.4834 5.77498 12.5417 6.11664C12.8584 8.13331 14.4917 9.68331 16.5251 9.88331C16.8667 9.91664 17.1167 10.225 17.0834 10.5666C17.0417 10.8833 16.7667 11.125 16.4501 11.125Z" fill="#E5E5E5"/>
<path d="M19.5 20.9583H4.5C4.15833 20.9583 3.875 20.675 3.875 20.3333C3.875 19.9917 4.15833 19.7083 4.5 19.7083H19.5C19.8417 19.7083 20.125 19.9917 20.125 20.3333C20.125 20.675 19.8417 20.9583 19.5 20.9583Z" fill="#E5E5E5"/>
</g>
</svg>
