<svg width="127.347" height="127.347" viewBox="0 0 127.347 127.347" fill="none" xmlns="http://www.w3.org/2000/svg">
<g id="Vector">
<mask id="path-1-inside-1_0_4" fill="white">
<path d="M11.2065 10.8245L0.891447 18.3379L15.4726 38.204C19.3399 36.1703 23.4471 34.6301 27.6979 33.6195M57.306 44.5713V57.306H101.877V59.1525L70.0407 68.1942V85.959C70.0407 91.6261 68.3602 97.1658 65.2118 101.878C62.0634 106.59 57.5884 110.262 52.3527 112.431C47.1171 114.6 41.3559 115.167 35.7978 114.061C30.2396 112.956 25.1342 110.227 21.127 106.22C17.1198 102.213 14.3908 97.1071 13.2853 91.549C12.1797 85.9908 12.7471 80.2297 14.9158 74.994C17.0845 69.7583 20.757 65.2834 25.4689 62.1349C30.1809 58.9865 35.7207 57.306 41.3877 57.306H44.5714V44.5713H41.3877C33.202 44.5713 25.2001 46.9987 18.3939 51.5464C11.5878 56.0942 6.283 62.558 3.15047 70.1207C0.0179326 77.6833 -0.801682 86.0049 0.795271 94.0334C2.39222 102.062 6.33402 109.436 12.1222 115.225C17.9104 121.013 25.2849 124.955 33.3134 126.551C41.3418 128.148 49.6635 127.329 57.2261 124.196C64.7887 121.064 71.2526 115.759 75.8003 108.953C80.348 102.147 82.7754 94.1447 82.7754 85.959V75.835L127.347 63.6734V44.5713M90.6709 10.8245L75.453 31.8367H91.1803L100.986 18.3379M44.5714 0V31.8367H57.306V0H44.5714Z"/>
</mask>
<path d="M11.2065 10.8245L0.891447 18.3379L15.4726 38.204C19.3399 36.1703 23.4471 34.6301 27.6979 33.6195M57.306 44.5713V57.306H101.877V59.1525L70.0407 68.1942V85.959C70.0407 91.6261 68.3602 97.1658 65.2118 101.878C62.0634 106.59 57.5884 110.262 52.3527 112.431C47.1171 114.6 41.3559 115.167 35.7978 114.061C30.2396 112.956 25.1342 110.227 21.127 106.22C17.1198 102.213 14.3908 97.1071 13.2853 91.549C12.1797 85.9908 12.7471 80.2297 14.9158 74.994C17.0845 69.7583 20.757 65.2834 25.4689 62.1349C30.1809 58.9865 35.7207 57.306 41.3877 57.306H44.5714V44.5713H41.3877C33.202 44.5713 25.2001 46.9987 18.3939 51.5464C11.5878 56.0942 6.283 62.558 3.15047 70.1207C0.0179326 77.6833 -0.801682 86.0049 0.795271 94.0334C2.39222 102.062 6.33402 109.436 12.1222 115.225C17.9104 121.013 25.2849 124.955 33.3134 126.551C41.3418 128.148 49.6635 127.329 57.2261 124.196C64.7887 121.064 71.2526 115.759 75.8003 108.953C80.348 102.147 82.7754 94.1447 82.7754 85.959V75.835L127.347 63.6734V44.5713M90.6709 10.8245L75.453 31.8367H91.1803L100.986 18.3379M44.5714 0V31.8367H57.306V0H44.5714Z" fill="white" mask="url(#path-1-inside-1_0_4)"/>
</g>
</svg>
