<svg width="24" height="24" viewBox="0 0 24 24" fill="none" xmlns="http://www.w3.org/2000/svg">
<path d="M7.25367 18.0042C6.93501 18.0042 6.61635 17.8868 6.36478 17.6352C5.87841 17.1488 5.87841 16.3438 6.36478 15.8574L15.8574 6.36478C16.3438 5.87841 17.1488 5.87841 17.6352 6.36478C18.1216 6.85115 18.1216 7.65618 17.6352 8.14256L8.14256 17.6352C7.90776 17.8868 7.57233 18.0042 7.25367 18.0042Z" fill="white"/>
<path d="M16.7463 18.0042C16.4277 18.0042 16.109 17.8868 15.8574 17.6352L6.36478 8.14256C5.87841 7.65618 5.87841 6.85115 6.36478 6.36478C6.85115 5.87841 7.65618 5.87841 8.14256 6.36478L17.6352 15.8574C18.1216 16.3438 18.1216 17.1488 17.6352 17.6352C17.3836 17.8868 17.065 18.0042 16.7463 18.0042Z" fill="white"/>
</svg>
