<svg width="16" height="16" viewBox="0 0 16 16" fill="none" xmlns="http://www.w3.org/2000/svg">
<path d="M10.6405 3.22114C10.9544 2.92629 11.4633 2.92629 11.7773 3.22114L15.7645 6.96579C16.0784 7.26064 16.0784 7.73859 15.7645 8.03344L11.7773 11.7791C11.4634 12.0736 10.9544 12.0736 10.6405 11.7791C10.3266 11.4843 10.3268 11.0063 10.6405 10.7114L14.0593 7.49962L10.6405 4.28879C10.3265 3.99394 10.3265 3.516 10.6405 3.22114Z" fill="#151515"/>
<path d="M15.1961 6.74459C15.6401 6.74459 16 7.08262 16 7.49961C16 7.9166 15.6401 8.25464 15.1961 8.25464L0.803925 8.25464C0.35993 8.25464 -1.09097e-07 7.9166 -7.02814e-08 7.49961C-3.1466e-08 7.08262 0.35993 6.74459 0.803925 6.74459L15.1961 6.74459Z" fill="#151515"/>
</svg>
