<svg width="32" height="32" viewBox="0 0 32 32" fill="none" xmlns="http://www.w3.org/2000/svg">
<circle cx="16" cy="16" r="16" fill="#313131"/>
<path d="M12.6414 20.592C12.416 20.592 12.1907 20.509 12.0127 20.3311C11.6688 19.9871 11.6688 19.4178 12.0127 19.0738L18.7261 12.3605C19.07 12.0165 19.6394 12.0165 19.9833 12.3605C20.3273 12.7044 20.3273 13.2738 19.9833 13.6177L13.27 20.3311C13.104 20.509 12.8667 20.592 12.6414 20.592Z" fill="white"/>
<path d="M19.3547 20.592C19.1294 20.592 18.904 20.509 18.7261 20.3311L12.0127 13.6177C11.6688 13.2738 11.6688 12.7044 12.0127 12.3605C12.3567 12.0165 12.926 12.0165 13.27 12.3605L19.9833 19.0738C20.3273 19.4178 20.3273 19.9871 19.9833 20.3311C19.8054 20.509 19.5801 20.592 19.3547 20.592Z" fill="white"/>
</svg>
