<svg width="120" height="120" viewBox="0 0 120 120" fill="none" xmlns="http://www.w3.org/2000/svg">
<rect x="40.9231" y="8.36164" width="66.1559" height="92.2138" rx="6" transform="rotate(11.6123 40.9231 8.36164)" fill="#1A1A1A" stroke="#FFE53B" stroke-width="4"/>
<path fill-rule="evenodd" clip-rule="evenodd" d="M35.5586 11.8926C35.4975 12.121 35.4418 12.3523 35.3936 12.5869L34.7139 15.8936H20C17.7909 15.8936 16 17.6844 16 19.8936V100.107C16.0003 102.316 17.791 104.107 20 104.107H25.251C26.2712 104.664 27.3894 105.082 28.5869 105.328L42.1113 108.107H20L19.5879 108.097C15.4978 107.889 12.2186 104.61 12.0107 100.52L12 100.107V19.8936C12 15.6135 15.3612 12.1188 19.5879 11.9043L20 11.8926H35.5586Z" fill="#FFE53B"/>
</svg>
