<svg width="40" height="40" viewBox="0 0 40 40" fill="none" xmlns="http://www.w3.org/2000/svg">
<circle cx="20" cy="20" r="20" fill="#525252"/>
<path d="M15.8017 25.74C15.52 25.74 15.2383 25.6362 15.016 25.4138C14.586 24.9839 14.586 24.2722 15.016 23.8422L23.4076 15.4506C23.8376 15.0206 24.5493 15.0206 24.9792 15.4506C25.4092 15.8805 25.4092 16.5922 24.9792 17.0222L16.5875 25.4138C16.38 25.6362 16.0834 25.74 15.8017 25.74Z" fill="white"/>
<path d="M24.1934 25.74C23.9117 25.74 23.63 25.6362 23.4076 25.4138L15.016 17.0222C14.586 16.5922 14.586 15.8805 15.016 15.4506C15.4459 15.0206 16.1576 15.0206 16.5875 15.4506L24.9792 23.8422C25.4092 24.2722 25.4092 24.9839 24.9792 25.4138C24.7568 25.6362 24.4751 25.74 24.1934 25.74Z" fill="white"/>
</svg>
