<svg width="40" height="40" viewBox="0 0 40 40" fill="none" xmlns="http://www.w3.org/2000/svg">
<circle cx="20" cy="20" r="20" fill="#E5E5E5"/>
<path d="M15.2537 26.0021C14.935 26.0021 14.6164 25.8847 14.3648 25.6331C13.8784 25.1467 13.8784 24.3417 14.3648 23.8553L23.8574 14.3627C24.3438 13.8763 25.1488 13.8763 25.6352 14.3627C26.1216 14.849 26.1216 15.6541 25.6352 16.1405L16.1426 25.6331C15.9078 25.8847 15.5723 26.0021 15.2537 26.0021Z" fill="#525252"/>
<path d="M24.7463 26.0021C24.4277 26.0021 24.109 25.8847 23.8574 25.6331L14.3648 16.1405C13.8784 15.6541 13.8784 14.849 14.3648 14.3627C14.8512 13.8763 15.6562 13.8763 16.1426 14.3627L25.6352 23.8553C26.1216 24.3417 26.1216 25.1467 25.6352 25.6331C25.3836 25.8847 25.065 26.0021 24.7463 26.0021Z" fill="#525252"/>
</svg>
