<svg width="40" height="40" viewBox="0 0 40 40" fill="none" xmlns="http://www.w3.org/2000/svg">
<circle cx="20" cy="20" r="20" fill="#E5E5E5"/>
<path d="M12.6497 21.138C12.4244 20.9126 12.2821 20.6043 12.2821 20.2485C12.2821 19.5607 12.8513 18.9914 13.5391 18.9914L26.9638 18.9914C27.6516 18.9914 28.2209 19.5607 28.2209 20.2485C28.2209 20.9364 27.6516 21.5056 26.9638 21.5056L13.5391 21.5056C13.1952 21.5175 12.875 21.3633 12.6497 21.138Z" fill="#525252"/>
<path d="M19.362 27.8503C19.1367 27.625 18.9944 27.3166 18.9944 26.9609L18.9944 13.5362C18.9944 12.8484 19.5636 12.2791 20.2515 12.2791C20.9393 12.2791 21.5085 12.8484 21.5085 13.5362L21.5085 26.9609C21.5085 27.6487 20.9393 28.2179 20.2515 28.2179C19.8957 28.2179 19.5873 28.0756 19.362 27.8503Z" fill="#525252"/>
</svg>
