<svg width="18" height="18" viewBox="0 0 18 18" fill="none" xmlns="http://www.w3.org/2000/svg">
<path d="M8.86551 16.2013C6.97284 16.2013 5.3228 15.5831 3.91541 14.3465C2.50864 13.1107 1.69466 11.5541 1.47345 9.67699H2.41575C2.66927 11.2801 3.39968 12.6129 4.60699 13.6755C5.8143 14.738 7.23381 15.2693 8.86551 15.2693C10.683 15.2693 12.2246 14.6364 13.4903 13.3707C14.756 12.105 15.3892 10.5631 15.3898 8.74495C15.3905 6.92684 14.7573 5.38492 13.4903 4.1192C12.2234 2.85348 10.6818 2.22062 8.86551 2.22062C7.90053 2.22062 6.99396 2.42443 6.1458 2.83204C5.29764 3.23904 4.54889 3.79982 3.89957 4.51439H6.21197V5.44643H2.34118V1.57658H3.27323V3.8023C3.99401 3.01131 4.83845 2.39491 5.80654 1.95312C6.77462 1.51133 7.79428 1.28982 8.86551 1.28857C9.89884 1.28857 10.8675 1.48306 11.7716 1.87204C12.6757 2.26101 13.4655 2.79352 14.1409 3.46956C14.8163 4.14561 15.3488 4.93536 15.7384 5.83883C16.128 6.74229 16.3225 7.711 16.3219 8.74495C16.3213 9.7789 16.1268 10.7476 15.7384 11.6511C15.3501 12.5545 14.8176 13.3443 14.1409 14.0203C13.4642 14.6964 12.6745 15.2289 11.7716 15.6179C10.8688 16.0068 9.90008 16.2013 8.86551 16.2013ZM11.8518 12.3371L8.45262 8.93881V4.08471H9.38466V8.55108L12.5107 11.6772L11.8518 12.3371Z" fill="#2C2C2C"/>
</svg>
