<svg width="24" height="24" viewBox="0 0 24 24" fill="none" xmlns="http://www.w3.org/2000/svg">
<path d="M16.5 11.0625C16.1925 11.0625 15.9375 10.8075 15.9375 10.5V9C15.9375 6.6375 15.27 5.0625 12 5.0625C8.73 5.0625 8.0625 6.6375 8.0625 9V10.5C8.0625 10.8075 7.8075 11.0625 7.5 11.0625C7.1925 11.0625 6.9375 10.8075 6.9375 10.5V9C6.9375 6.825 7.4625 3.9375 12 3.9375C16.5375 3.9375 17.0625 6.825 17.0625 9V10.5C17.0625 10.8075 16.8075 11.0625 16.5 11.0625Z" fill="#151515"/>
<path d="M12 17.4375C10.6575 17.4375 9.5625 16.3425 9.5625 15C9.5625 13.6575 10.6575 12.5625 12 12.5625C13.3425 12.5625 14.4375 13.6575 14.4375 15C14.4375 16.3425 13.3425 17.4375 12 17.4375ZM12 13.6875C11.28 13.6875 10.6875 14.28 10.6875 15C10.6875 15.72 11.28 16.3125 12 16.3125C12.72 16.3125 13.3125 15.72 13.3125 15C13.3125 14.28 12.72 13.6875 12 13.6875Z" fill="#151515"/>
<path d="M15.75 20.0625H8.25C4.9425 20.0625 3.9375 19.0575 3.9375 15.75V14.25C3.9375 10.9425 4.9425 9.9375 8.25 9.9375H15.75C19.0575 9.9375 20.0625 10.9425 20.0625 14.25V15.75C20.0625 19.0575 19.0575 20.0625 15.75 20.0625ZM8.25 11.0625C5.565 11.0625 5.0625 11.5725 5.0625 14.25V15.75C5.0625 18.4275 5.565 18.9375 8.25 18.9375H15.75C18.435 18.9375 18.9375 18.4275 18.9375 15.75V14.25C18.9375 11.5725 18.435 11.0625 15.75 11.0625H8.25Z" fill="#151515"/>
</svg>
