<svg width="24" height="24" viewBox="0 0 24 24" fill="none" xmlns="http://www.w3.org/2000/svg">
<path d="M16.8213 8.88135C17.1601 8.54253 17.7198 8.54253 18.0586 8.88135L20.6182 11.4419C20.9569 11.7807 20.9569 12.3394 20.6182 12.6782L18.0586 15.2388C17.8839 15.4134 17.6608 15.4946 17.4395 15.4946C17.2183 15.4945 16.9958 15.4133 16.8213 15.2388C16.4825 14.9 16.4825 14.3403 16.8213 14.0015L18.7627 12.0591L16.8213 10.1187C16.4825 9.77984 16.4825 9.22016 16.8213 8.88135Z" fill="#151515" stroke="#151515" stroke-width="0.25"/>
<path d="M19.9297 11.1851C20.4087 11.1851 20.8047 11.581 20.8047 12.0601C20.8047 12.5391 20.4087 12.9351 19.9297 12.9351H9.75977C9.28073 12.9351 8.88477 12.5391 8.88477 12.0601C8.88477 11.581 9.28073 11.1851 9.75977 11.1851H19.9297Z" fill="#151515" stroke="#151515" stroke-width="0.25"/>
<path d="M11.7598 3.125C12.2388 3.125 12.6348 3.52096 12.6348 4C12.6348 4.47904 12.2388 4.875 11.7598 4.875C9.65461 4.875 7.87514 5.60923 6.62207 6.8623C5.369 8.11537 4.63477 9.89485 4.63477 12C4.63477 14.1052 5.369 15.8846 6.62207 17.1377C7.87514 18.3908 9.65461 19.125 11.7598 19.125C12.2388 19.125 12.6348 19.521 12.6348 20C12.6348 20.479 12.2388 20.875 11.7598 20.875C9.15487 20.875 6.93463 19.9639 5.36523 18.3945C3.79584 16.8251 2.88477 14.6049 2.88477 12C2.88477 9.3951 3.79584 7.17487 5.36523 5.60547C6.93463 4.03607 9.15487 3.125 11.7598 3.125Z" fill="#151515" stroke="#151515" stroke-width="0.25"/>
</svg>
