<svg width="24" height="24" viewBox="0 0 24 24" fill="none" xmlns="http://www.w3.org/2000/svg">
<path d="M19.3469 7.77841C19.3302 7.77841 19.3052 7.77841 19.2802 7.77841C14.8719 7.33674 10.4719 7.17008 6.11352 7.61174L4.41352 7.77841C4.06352 7.81174 3.75519 7.56174 3.72185 7.21174C3.68852 6.86174 3.93852 6.56174 4.28019 6.52841L5.98019 6.36174C10.4135 5.91174 14.9052 6.08674 19.4052 6.52841C19.7469 6.56174 19.9969 6.87007 19.9635 7.21174C19.9385 7.53674 19.6635 7.77841 19.3469 7.77841Z" fill="#151515"/>
<path d="M8.93018 6.93676C8.89685 6.93676 8.86352 6.93676 8.82185 6.92843C8.48852 6.8701 8.25518 6.54509 8.31352 6.21176L8.49685 5.12009C8.63018 4.32009 8.81352 3.21176 10.7552 3.21176H12.9385C14.8885 3.21176 15.0719 4.36176 15.1969 5.12843L15.3802 6.21176C15.4385 6.55343 15.2052 6.87843 14.8719 6.92843C14.5302 6.98676 14.2052 6.75343 14.1552 6.42009L13.9719 5.33676C13.8552 4.61176 13.8302 4.47009 12.9468 4.47009H10.7635C9.88018 4.47009 9.86352 4.58676 9.73852 5.32843L9.54685 6.41176C9.49685 6.7201 9.23018 6.93676 8.93018 6.93676Z" fill="#151515"/>
<path d="M14.5223 21.1284H9.17229C6.26395 21.1284 6.14729 19.52 6.05562 18.22L5.51395 9.82838C5.48895 9.48671 5.75562 9.18671 6.09729 9.16171C6.44729 9.14505 6.73895 9.40338 6.76395 9.74505L7.30562 18.1367C7.39729 19.4034 7.43062 19.8784 9.17229 19.8784H14.5223C16.2723 19.8784 16.3056 19.4034 16.389 18.1367L16.9306 9.74505C16.9556 9.40338 17.2556 9.14505 17.5973 9.16171C17.939 9.18671 18.2056 9.47838 18.1806 9.82838L17.639 18.22C17.5473 19.52 17.4306 21.1284 14.5223 21.1284Z" fill="#151515"/>
<path d="M13.2304 16.5451H10.4554C10.1138 16.5451 9.83044 16.2617 9.83044 15.9201C9.83044 15.5784 10.1138 15.2951 10.4554 15.2951H13.2304C13.5721 15.2951 13.8554 15.5784 13.8554 15.9201C13.8554 16.2617 13.5721 16.5451 13.2304 16.5451Z" fill="#151515"/>
<path d="M13.9303 13.2117H9.76367C9.42201 13.2117 9.13867 12.9284 9.13867 12.5867C9.13867 12.2451 9.42201 11.9617 9.76367 11.9617H13.9303C14.272 11.9617 14.5553 12.2451 14.5553 12.5867C14.5553 12.9284 14.272 13.2117 13.9303 13.2117Z" fill="#151515"/>
</svg>
