<svg width="40" height="40" viewBox="0 0 40 40" fill="none" xmlns="http://www.w3.org/2000/svg">
<circle cx="20" cy="20" r="20" fill="white"/>
<path d="M19.6155 26.9512C17.7228 26.9512 16.0728 26.3329 14.6654 25.0964C13.2586 23.8605 12.4447 22.304 12.2234 20.4269H13.1657C13.4193 22.03 14.1497 23.3628 15.357 24.4254C16.5643 25.4879 17.9838 26.0192 19.6155 26.0192C21.433 26.0192 22.9746 25.3863 24.2403 24.1206C25.506 22.8549 26.1392 21.3129 26.1398 19.4948C26.1405 17.6767 25.5073 16.1348 24.2403 14.8691C22.9734 13.6034 21.4318 12.9705 19.6155 12.9705C18.6505 12.9705 17.744 13.1743 16.8958 13.5819C16.0476 13.9889 15.2989 14.5497 14.6496 15.2643H16.962V16.1963H13.0912V12.3265H14.0232V14.5522C14.744 13.7612 15.5884 13.1448 16.5565 12.703C17.5246 12.2612 18.5443 12.0397 19.6155 12.0385C20.6488 12.0385 21.6175 12.2329 22.5216 12.6219C23.4257 13.0109 24.2155 13.5434 24.8909 14.2194C25.5663 14.8955 26.0988 15.6852 26.4884 16.5887C26.878 17.4922 27.0725 18.4609 27.0719 19.4948C27.0713 20.5288 26.8768 21.4975 26.4884 22.4009C26.1001 23.3044 25.5676 24.0942 24.8909 24.7702C24.2142 25.4463 23.4245 25.9788 22.5216 26.3677C21.6188 26.7567 20.6501 26.9512 19.6155 26.9512ZM22.6018 23.0869L19.2026 19.6887V14.8346H20.1347V19.301L23.2607 22.427L22.6018 23.0869Z" fill="#525252"/>
</svg>
