<svg width="40" height="40" viewBox="0 0 40 40" fill="none" xmlns="http://www.w3.org/2000/svg">
<circle cx="20" cy="20" r="20" fill="white"/>
<path d="M13.2787 21.219C13.0796 21.0198 12.9537 20.7473 12.9537 20.4327C12.9537 19.8247 13.457 19.3215 14.065 19.3215L25.9327 19.3215C26.5407 19.3215 27.0439 19.8247 27.0439 20.4327C27.0439 21.0408 26.5407 21.544 25.9327 21.544L14.065 21.544C13.761 21.5545 13.4779 21.4182 13.2787 21.219Z" fill="#525252"/>
<path d="M19.2126 27.1528C19.0134 26.9536 18.8876 26.6811 18.8876 26.3665L18.8876 14.4989C18.8876 13.8909 19.3908 13.3876 19.9988 13.3876C20.6069 13.3876 21.1101 13.8909 21.1101 14.4989L21.1101 26.3665C21.1101 26.9746 20.6069 27.4778 19.9988 27.4778C19.6843 27.4778 19.4117 27.352 19.2126 27.1528Z" fill="#525252"/>
</svg>
