<svg width="40" height="40" viewBox="0 0 40 40" fill="none" xmlns="http://www.w3.org/2000/svg">
<circle cx="20" cy="20" r="20" fill="white"/>
<path d="M14.6916 16.2382C14.6916 15.9565 14.7953 15.6748 15.0177 15.4524C15.4477 15.0224 16.1594 15.0224 16.5893 15.4524L24.981 23.8441C25.411 24.274 25.411 24.9857 24.981 25.4157C24.551 25.8456 23.8394 25.8456 23.4094 25.4157L15.0177 17.024C14.7953 16.8164 14.6916 16.5199 14.6916 16.2382Z" fill="#525252"/>
<path d="M14.6916 24.6299C14.6916 24.3482 14.7953 24.0665 15.0177 23.8441L23.4094 15.4524C23.8394 15.0224 24.551 15.0224 24.981 15.4524C25.411 15.8824 25.411 16.594 24.981 17.024L16.5893 25.4157C16.1594 25.8456 15.4477 25.8456 15.0177 25.4157C14.7953 25.1933 14.6916 24.9116 14.6916 24.6299Z" fill="#525252"/>
</svg>
