<svg width="40" height="40" viewBox="0 0 40 40" fill="none" xmlns="http://www.w3.org/2000/svg">
<path d="M12.0894 30.007C11.5584 30.007 11.0273 29.8113 10.608 29.392C9.79734 28.5814 9.79734 27.2397 10.608 26.4291L26.4291 10.608C27.2397 9.79734 28.5814 9.79734 29.392 10.608C30.2027 11.4186 30.2027 12.7603 29.392 13.5709L13.5709 29.392C13.1796 29.8113 12.6205 30.007 12.0894 30.007Z" fill="#F14531"/>
<path d="M27.9106 30.007C27.3795 30.007 26.8484 29.8113 26.4291 29.392L10.608 13.5709C9.79734 12.7603 9.79734 11.4186 10.608 10.608C11.4186 9.79734 12.7603 9.79734 13.5709 10.608L29.392 26.4291C30.2027 27.2397 30.2027 28.5814 29.392 29.392C28.9727 29.8113 28.4417 30.007 27.9106 30.007Z" fill="#F14531"/>
</svg>
